<?xml version="1.0" standalone="no"?><!DOCTYPE svg PUBLIC "-//W3C//DTD SVG 1.1//EN" "http://www.w3.org/Graphics/SVG/1.1/DTD/svg11.dtd"><svg t="1496032910602" class="icon" style="" viewBox="0 0 1024 1024" version="1.1" xmlns="http://www.w3.org/2000/svg" p-id="7707" xmlns:xlink="http://www.w3.org/1999/xlink" width="48" height="48"><defs><style type="text/css"></style></defs><path d="M512 0C229.23 0 0 229.23 0 512c0 282.772 229.23 512 512 512s512-229.228 512-512C1024 229.23 794.77 0 512 0zM512 944c-238.586 0-432-193.412-432-432 0-238.586 193.414-432 432-432 238.586 0 432 193.412 432 432C944 750.588 750.586 944 512 944z" p-id="7708" fill="#ffd100"></path><path d="M346 372m-60 0a30 30 0 1 0 120 0 30 30 0 1 0-120 0Z" p-id="7709" fill="#ffd100"></path><path d="M682 372m-60 0a30 30 0 1 0 120 0 30 30 0 1 0-120 0Z" p-id="7710" fill="#ffd100"></path><path d="M272 590c0.93 132 108.452 239.324 241 239.324C645.546 829.324 753.068 722 754 590L272 590z" p-id="7711" fill="#ffd100"></path></svg>