<?xml version="1.0" encoding="UTF-8" standalone="no"?>
<svg width="17px" height="13px" viewBox="0 0 17 13" version="1.1" xmlns="http://www.w3.org/2000/svg" xmlns:xlink="http://www.w3.org/1999/xlink">
    <!-- Generator: Sketch 39.1 (31720) - http://www.bohemiancoding.com/sketch -->
    <title>Group 29</title>
    <desc>Created with Sketch.</desc>
    <defs></defs>
    <g id="Page-1" stroke="none" stroke-width="1" fill="none" fill-rule="evenodd">
        <g id="Desktop-HD" transform="translate(-339.000000, -141.000000)">
            <polygon id="Clip-2" points="347.0395 152.4217 355.079 152.4217 355.079 140.999893 339.000001 140.999893 339.000001 152.4217 347.0395 152.4217"></polygon>
            <g id="Group-29" transform="translate(339.000000, 141.000000)" fill="#C7C7C7">
                <path d="M8.31592821,11.2880083 C5.12619629,11.2208417 2.30121661,9.236175 1.06951701,6.229925 C2.31813265,3.07959167 5.36830719,1.01584167 8.68385221,1.085175 C11.8735841,1.153425 14.6996211,3.13700833 15.9302634,6.14325833 C14.6816478,9.29359167 11.638874,11.355175 8.31592821,11.2880083 M16.9684857,5.86050833 C15.606744,2.378675 12.3641495,0.0798416667 8.70499726,0.00184166667 C4.89571516,-0.078325 1.41206694,2.310425 0.0334091948,5.94609167 C-0.00148015003,6.03709167 -0.0025374029,6.13025833 0.0112068845,6.220175 C-0.00570916152,6.31659167 -0.00676641439,6.415175 0.0312946891,6.512675 C1.39197914,9.99450833 4.63563095,12.2933417 8.2937259,12.3713417 C8.35716107,12.372425 8.41953899,12.3735083 8.48085965,12.3735083 C12.2161341,12.3735083 15.6099158,10.003175 16.9674285,6.42709167 C17.0012606,6.33609167 17.0023178,6.242925 16.9896308,6.15300833 C17.0054896,6.05659167 17.0065468,5.95800833 16.9684857,5.86050833" id="Fill-1"></path>
                <path d="M8.5418625,8.403525 C7.3433625,8.403525 6.3679875,7.409025 6.3679875,6.187025 C6.3679875,4.96394167 7.3433625,3.96944167 8.5418625,3.96944167 C9.741425,3.96944167 10.7168,4.96394167 10.7168,6.187025 C10.7168,7.409025 9.741425,8.403525 8.5418625,8.403525 M8.5418625,2.88610833 C6.7568625,2.88610833 5.3054875,4.367025 5.3054875,6.187025 C5.3054875,8.00594167 6.7568625,9.48685833 8.5418625,9.48685833 C10.3268625,9.48685833 11.7793,8.00594167 11.7793,6.187025 C11.7793,4.367025 10.3268625,2.88610833 8.5418625,2.88610833" id="Fill-4"></path>
            </g>
        </g>
    </g>
</svg>