<?xml version="1.0" encoding="utf-8"?>
<!-- Generator: Adobe Illustrator 19.0.0, SVG Export Plug-In . SVG Version: 6.00 Build 0)  -->
<svg version="1.1" id="图层_1" xmlns="http://www.w3.org/2000/svg" xmlns:xlink="http://www.w3.org/1999/xlink" x="0px" y="0px"
	 viewBox="0 0 24 24" style="enable-background:new 0 0 24 24;" xml:space="preserve">
<style type="text/css">
	.st0{fill:#999999;}
</style>
<g id="XMLID_1965_">
	<path id="XMLID_13_" class="st0" d="M12.1,1.6c0.3,0,0.5,0.1,0.6,0.4l2.4,4.9c0.1,0.3,0.4,0.5,0.8,0.5l5.4,0.8
		c0.3,0,0.5,0.2,0.6,0.5c0.1,0.3,0,0.5-0.2,0.7l-3.9,3.8c-0.2,0.2-0.3,0.6-0.3,0.9l0.9,5.4c0,0.3-0.1,0.5-0.3,0.7
		c-0.1,0.1-0.3,0.1-0.4,0.1c-0.1,0-0.2,0-0.3-0.1l-4.8-2.5c-0.1-0.1-0.3-0.1-0.5-0.1c-0.2,0-0.3,0-0.5,0.1l-4.8,2.5
		c-0.1,0.1-0.2,0.1-0.3,0.1c-0.1,0-0.3,0-0.4-0.1c-0.2-0.2-0.3-0.4-0.3-0.7l0.9-5.4c0.1-0.3-0.1-0.7-0.3-0.9L2.6,9.4
		C2.4,9.2,2.3,9,2.4,8.7C2.5,8.5,2.7,8.3,3,8.2l5.4-0.8c0.3,0,0.6-0.3,0.8-0.5L11.5,2C11.6,1.8,11.9,1.6,12.1,1.6L12.1,1.6
		 M12.1,0.6L12.1,0.6c-0.7,0-1.2,0.4-1.5,0.9L8.2,6.5L2.8,7.2C2.2,7.3,1.6,7.8,1.4,8.4c-0.2,0.6,0,1.3,0.4,1.7l3.9,3.8l-0.9,5.4
		C4.7,19.9,5,20.6,5.5,21c0.3,0.2,0.6,0.3,1,0.3c0.3,0,0.5-0.1,0.8-0.2l4.8-2.5l4.8,2.5c0.3,0.1,0.5,0.2,0.8,0.2
		c0.4,0,0.7-0.1,1-0.3c0.5-0.4,0.8-1,0.7-1.7l-0.9-5.4l3.9-3.8C22.8,9.7,23,9,22.8,8.4c-0.2-0.6-0.7-1.1-1.4-1.2l-5.4-0.8l-2.4-4.9
		v0C13.4,1,12.8,0.6,12.1,0.6L12.1,0.6z"/>
</g>
</svg>
