<?xml version="1.0" encoding="utf-8"?>
<!-- Generator: Adobe Illustrator 19.0.0, SVG Export Plug-In . SVG Version: 6.00 Build 0)  -->
<svg version="1.1" id="图层_1" xmlns="http://www.w3.org/2000/svg" xmlns:xlink="http://www.w3.org/1999/xlink" x="0px" y="0px"
	 viewBox="0 0 24 24" style="enable-background:new 0 0 24 24;" xml:space="preserve">
<style type="text/css">
	.st0{fill:#F5CA1D;}
</style>
<g id="XMLID_1965_">
	<path id="XMLID_14_" class="st0" d="M6.5,21.3c-0.4,0-0.7-0.1-1-0.3c-0.5-0.4-0.8-1-0.7-1.7l0.9-5.4l-3.9-3.8
		C1.4,9.7,1.2,9,1.4,8.4c0.2-0.6,0.7-1.1,1.4-1.2l5.4-0.8l2.4-4.9c0.3-0.6,0.9-0.9,1.5-0.9h0c0.7,0,1.2,0.4,1.5,0.9v0l2.4,4.9
		l5.4,0.8c0.6,0.1,1.2,0.5,1.4,1.2c0.2,0.6,0,1.3-0.4,1.7l-3.9,3.8l0.9,5.4c0.1,0.6-0.1,1.3-0.7,1.7c-0.5,0.4-1.2,0.4-1.8,0.1
		l-4.8-2.5l-4.8,2.5C7.1,21.2,6.8,21.3,6.5,21.3z"/>
</g>
</svg>
