<?xml version="1.0" encoding="utf-8"?>
<!-- Generator: Adobe Illustrator 19.0.0, SVG Export Plug-In . SVG Version: 6.00 Build 0)  -->
<svg version="1.1" id="图层_1" xmlns="http://www.w3.org/2000/svg" xmlns:xlink="http://www.w3.org/1999/xlink" x="0px" y="0px"
	 viewBox="-228 314 24 24" style="enable-background:new -228 314 24 24;" xml:space="preserve">
<style type="text/css">
	.st0{fill:none;stroke:#FFD100;stroke-linecap:round;stroke-linejoin:round;stroke-miterlimit:10;}
</style>
<path id="XMLID_1316_" class="st0" d="M-210.8,332.7L-210.8,332.7c0.1,0,0.1,0,0.2,0c3.3,0,5.9-2.6,5.9-5.9c0-3-2.2-5.4-5.1-5.8
	c-1-2.5-3.5-4.3-6.4-4.3c-3.4,0-6.2,2.5-6.8,5.8c-2.4,0.5-4.2,2.5-4.2,5c0,2.8,2.3,5.1,5.1,5.1c0.1,0,0.2,0,0.2,0l0,0"/>
<polyline id="XMLID_1315_" class="st0" points="-213.5,333.6 -216.1,336.2 -218.7,333.6 "/>
<line id="XMLID_1314_" class="st0" x1="-216.1" y1="335.8" x2="-216.1" y2="325.2"/>
</svg>
