<?xml version="1.0" encoding="utf-8"?>
<!-- Generator: Adobe Illustrator 19.0.0, SVG Export Plug-In . SVG Version: 6.00 Build 0)  -->
<svg version="1.1" id="图层_1" xmlns="http://www.w3.org/2000/svg" xmlns:xlink="http://www.w3.org/1999/xlink" x="0px" y="0px"
	 viewBox="0 0 260 244" style="enable-background:new 0 0 260 244;" xml:space="preserve">
<style type="text/css">
	.st0{fill:#FFFFFF;}
	.st1{fill:#F2F2F2;}
</style>
<path id="XMLID_1_" class="st0" d="M256,244H4c-2.2,0-4-1.8-4-4V4c0-2.2,1.8-4,4-4h252c2.2,0,4,1.8,4,4v236
	C260,242.2,258.2,244,256,244z"/>
<circle id="XMLID_2_" class="st1" cx="130" cy="69.9" r="40"/>
<path id="XMLID_3_" class="st1" d="M176,144.6H84c-2.2,0-4-1.8-4-4v-6c0-2.2,1.8-4,4-4h92c2.2,0,4,1.8,4,4v6
	C180,142.8,178.2,144.6,176,144.6z"/>
<path id="XMLID_5_" class="st1" d="M176,165.9H84c-2.2,0-4-1.8-4-4v-6c0-2.2,1.8-4,4-4h92c2.2,0,4,1.8,4,4v6
	C180,164.1,178.2,165.9,176,165.9z"/>
<path id="XMLID_4_" class="st1" d="M120.4,224.4h-94c-2.2,0-4-1.8-4-4v-28c0-2.2,1.8-4,4-4h94c2.2,0,4,1.8,4,4v28
	C124.4,222.6,122.6,224.4,120.4,224.4z"/>
<path id="XMLID_7_" class="st1" d="M233.8,224.4h-94c-2.2,0-4-1.8-4-4v-28c0-2.2,1.8-4,4-4h94c2.2,0,4,1.8,4,4v28
	C237.8,222.6,236,224.4,233.8,224.4z"/>
</svg>
